<svg xmlns="http://www.w3.org/2000/svg" width="38" height="38" fill="none"><path fill="#333" d="M35.4731 18.3475c-.1027-.0321-.2015-.0403-.2972-.0244-.206.034-.3743.1431-.5062.3277l-1.2678 1.7698c-.1184.1661-.1609.3517-.1269.5575l.9968 6.0273c.1728 1.0444-.0504 1.9992-.6715 2.8661-.6205.8665-1.4531 1.3862-2.4973 1.5589l-19.7443 3.2654c-1.0443.1728-1.99979-.0512-2.86626-.6717-.86669-.6209-1.38608-1.4529-1.55882-2.4973l-3.2654-19.7439c-.17268-1.0442.05111-1.99948.67177-2.86623.62052-.86655 1.453-1.3861 2.49731-1.55882l19.7445-3.2655c.3481-.05757.7119-.06897 1.0914-.03414.1002.01571.174.01998.2209.01223.206-.03407.3749-.14305.5069-.32737l.9705-1.35516c.1583-.22097.1918-.46236.0995-.72317-.0893-.24533-.262-.40379-.5176-.47517-.9191-.25377-1.8779-.29904-2.8746-.1342L6.335 4.32076c-1.88265.31136-3.38196 1.24606-4.49774 2.80405C.72166 8.68295.31943 10.4031.63081 12.2858l3.26547 19.7444c.31133 1.8824 1.24601 3.3816 2.80392 4.4974 1.55806 1.1162 3.27847 1.5183 5.1611 1.207l19.7443-3.2655c1.8824-.3113 3.3819-1.246 4.4976-2.8044 1.1159-1.558 1.5187-3.2783 1.2073-5.1608l-1.2482-7.547c-.055-.3319-.2519-.5349-.5892-.6094Z"/></svg>