<svg xmlns="http://www.w3.org/2000/svg" width="32" height="29" fill="currentColor"><path fill="#333" d="M31.1772 2.74065 28.1347.56173c-.4425-.3168-.925-.43203-1.4473-.34566-.5215.08626-.9416.35078-1.2582.79312L12.6143 18.9028l-7.27322-5.2092c-.4426-.317-.92496-.432-1.44687-.3457-.52199.0863-.94147.3505-1.2585.7932L.45706 17.1832c-.31689.4424-.4323.9249-.34594 1.4471.08633.522.3509.9414.79342 1.2585l11.89196 8.5166c.4426.3171.925.4321 1.4469.3457.5219-.0863.9415-.3503 1.2585-.7931L31.6244 5.44597c.3166-.44236.4323-.92492.3459-1.4469-.0863-.52199-.3506-.94161-.7931-1.25842Z"/></svg>